HIERARCHY
ROOT pelvis
{
  OFFSET 0 100 0
  CHANNELS 6 Xposition Yposition Zposition Zrotation Xrotation Yrotation
  JOINT pelvis_right_femur
  {
    OFFSET -10.78128 -3.44521 -0.5502486
    CHANNELS 3 Zrotation Xrotation Yrotation
    JOINT right_femur_tibia
    {
      OFFSET -0.8047443 -44.0398 -0.1307829
      CHANNELS 3 Zrotation Xrotation Yrotation
      JOINT right_tibia_foot
      {
        OFFSET 3.006224 -47.83518 -5
        CHANNELS 3 Zrotation Xrotation Yrotation
        End Site
        {
          OFFSET 0 -5 15
        }
      }
    }
  }
  JOINT pelvis_left_femur
  {
    OFFSET 10.78128 -3.44521 -0.5502486
    CHANNELS 3 Zrotation Xrotation Yrotation
    JOINT left_femur_tibia
    {
      OFFSET 0.8047443 -44.0398 -0.1307829
      CHANNELS 3 Zrotation Xrotation Yrotation
      JOINT left_tibia_foot
      {
        OFFSET -4.370144 -48.10324 -4.275266
        CHANNELS 3 Zrotation Xrotation Yrotation
        End Site
        {
          OFFSET 0 -5 15
        }
      }
    }
  }
  JOINT pelvis_spine1
  {
    OFFSET 0 6.468898 -3.129235
    CHANNELS 3 Zrotation Xrotation Yrotation
    JOINT spine1
    {
      OFFSET 0 23.15396 4.99043
      CHANNELS 3 Zrotation Xrotation Yrotation
      JOINT spine2
      {
        OFFSET 0 20.79997 -5.064912
        CHANNELS 3 Zrotation Xrotation Yrotation
        JOINT neck
        {
          OFFSET 0 14.38658 9.616178
          CHANNELS 3 Zrotation Xrotation Yrotation
          End Site
          {
            OFFSET 0 20 0
          }
        }
      }
      JOINT right_manubrium
      {
        OFFSET -5.722621 16.35077 3.967754
        CHANNELS 3 Zrotation Xrotation Yrotation
        JOINT right_clavicle
        {
          OFFSET -13.16364 1.694482 -4.693211
          CHANNELS 3 Zrotation Xrotation Yrotation
          JOINT right_humerus
          {
            OFFSET -28.5034 -0.3100689 -2.792744
            CHANNELS 3 Zrotation Xrotation Yrotation
            JOINT right_radius
            {
              OFFSET -25.15693 0.02248979 -1.271978
              CHANNELS 3 Zrotation Xrotation Yrotation
              End Site
              {
                OFFSET -15 0 0
              }
            }
          }
        }
      }
      JOINT left_manubrium
      {
        OFFSET 5.722621 16.35077 3.967754
        CHANNELS 3 Zrotation Xrotation Yrotation
        JOINT left_clavicle
        {
          OFFSET 13.16364 1.694482 -4.693211
          CHANNELS 3 Zrotation Xrotation Yrotation
          JOINT left_humerus
          {
            OFFSET 29.39168 -1.063119 -2.237045
            CHANNELS 3 Zrotation Xrotation Yrotation
            JOINT left_radius
            {
              OFFSET 24.59957 -0.9528479 0.9047498
              CHANNELS 3 Zrotation Xrotation Yrotation
              End Site
              {
                OFFSET 15 -0 -0
              }
            }
          }
        }
      }
    }
  }
}
MOTION
Frames: 19
Frame Time: 0.0416666666667
-865.6009 163.4335 2028.912 -10.79092 0.8094775 -100.4751 -0.5315454 13.76747 -1.551035 -0 33.55944 -0 -13.6942 -1.704607 -0.02573722 -3.359958 -6.12006 -11.95077 -0 12.10487 -0 -0.6253494 -7.873074 20.19055 2.486867 -2.244918 8.479831 0.3982906 18.34722 -6.414194 0.7850104 19.69296 1.934086 2.177221 -16.74085 2.124002 -1.159261 -28.41131 13.2779 89.53353 15.01339 -14.64786 -0 0 25.19957 -22.25405 17.01656 10.01501 2.804126 -26.50998 -11.1623 -94.42784 9.436485 33.58419 0 0 -9.542348 9.942516 12.50861 1.862931
-870.8875 163.7728 2028.756 -11.28236 0.5185933 -100.2294 -1.561118 9.09883 -1.558691 -0 39.03665 -0 -14.51101 2.305864 0.7547502 -4.5643 -0.4455421 -13.7118 -0 12.6525 -0 -0.05482209 -9.828508 20.86657 2.359714 -2.211344 8.259221 0.3444771 18.32685 -6.472568 0.803812 20.01637 2.121432 2.487942 -16.70789 2.120232 -1.025119 -27.66798 13.25298 89.64159 15.30214 -15.27371 -0 0 24.11005 -22.49534 16.67952 9.610878 3.162246 -26.81712 -11.2639 -94.10828 9.667163 32.07488 0 0 -9.889353 10.58913 12.77111 0.764359
-875.3764 164.2855 2028.524 -10.93283 0.4266519 -99.85035 -1.592888 3.014269 -0.7506342 -0 42.79059 -0 -14.3479 3.385272 0.6808225 -5.168839 4.796515 -15.51813 -0 12.2825 -0 -0.237326 -12.49025 21.25698 2.056804 -2.03738 7.942445 0.2431741 18.06119 -6.528592 0.7128806 20.49399 2.552526 3.16936 -16.48121 1.978705 -0.7416635 -26.45414 13.13774 89.66573 16.22464 -16.12377 -0 0 22.48052 -22.66548 15.79697 8.850428 3.742649 -27.28112 -11.44629 -93.48984 9.844242 29.75935 0 0 -10.61744 11.55757 12.86594 -0.8854462
-879.0078 164.7916 2028.243 -9.507346 0.5103269 -99.45932 -0.5227945 -3.209416 0.946937 -0 43.85199 -0 -12.95809 0.476297 -0.6296939 -5.198486 8.474807 -17.40724 -0 10.70038 -0 -1.448907 -15.50038 21.10553 1.506654 -1.724575 7.4717 0.05840625 17.41948 -6.521095 0.5124382 21.04176 3.295427 4.269619 -16.05583 1.733515 -0.1860152 -24.76393 12.89049 89.40612 18.04848 -16.89324 -0 0 20.54179 -22.83174 14.36087 7.944989 4.629553 -27.74848 -11.55913 -92.48843 9.833063 26.57779 0 0 -11.71233 12.7823 12.74249 -3.055583
-881.9536 165.1691 2027.974 -7.361174 0.5809994 -99.13709 0.9128356 -8.720004 3.013428 -0 42.97907 -0 -10.98574 -4.023105 -2.324964 -5.107713 10.48745 -19.05653 -0 8.839255 -0 -2.376041 -17.98518 20.90826 0.7774499 -1.400263 6.824684 -0.1717522 16.4773 -6.446667 0.3156067 21.51747 4.213055 5.457163 -15.70363 1.627077 0.5361268 -22.94177 12.55694 88.93337 20.49265 -17.28324 -0 0 18.71877 -23.04905 12.73763 7.271157 5.708206 -27.93743 -11.35406 -91.21522 9.585832 22.96611 0 0 -12.96737 14.05611 12.6099 -5.483329
-884.3869 165.4194 2027.744 -5.051871 0.5758142 -98.91244 2.285876 -13.3367 5.050285 -0 41.40549 -0 -9.218827 -8.014312 -3.618037 -5.142573 11.58437 -20.48869 -0 7.472931 -0 -2.27715 -19.72438 21.18841 0.1349998 -1.202442 6.109563 -0.2951588 15.55179 -6.457182 0.2702121 21.8648 4.949258 6.108045 -15.85459 1.950397 0.8824945 -21.54327 12.25812 88.9349 22.6448 -17.62952 -0 0 17.13037 -23.11518 11.41773 6.826595 6.607204 -27.77324 -10.78373 -89.86864 9.298588 19.646 0 0 -14.5231 15.20308 12.75248 -7.834562
-886.3751 165.6314 2027.551 -2.733318 0.5586017 -98.79661 3.75316 -17.20062 7.1285 -0 39.94502 -0 -7.928464 -11.32523 -4.447594 -5.258963 12.26237 -22.02725 -0 6.63534 -0 -1.563015 -21.0602 21.96432 -0.2382742 -1.151195 5.473664 -0.246574 14.87026 -6.628386 0.3822432 22.10987 5.34045 6.062029 -16.5491 2.658972 0.587675 -20.75288 12.05729 89.77629 23.92662 -18.36105 -0 0 15.64575 -22.90467 10.58251 6.422299 7.133006 -27.48687 -10.07289 -88.60318 9.170365 16.99654 0 0 -16.59016 16.14483 13.13733 -9.809786
-887.9895 165.8867 2027.39 -0.4340841 0.5643047 -98.78354 5.370529 -20.62074 9.173908 -0 38.66658 -0 -7.034039 -13.87594 -4.894048 -5.418115 12.60366 -23.55973 -0 6.208062 -0 -0.4682642 -22.1345 23.01713 -0.3937308 -1.193963 4.958021 -0.1097968 14.42064 -6.873654 0.5477708 22.28431 5.52041 5.696349 -17.43378 3.447459 -0.04244536 -20.31779 11.92039 91.0417 24.47228 -19.3797 -0 0 14.20761 -22.59482 10.10638 6.06054 7.43151 -27.32055 -9.448849 -87.50321 9.194397 14.90465 0 0 -18.98629 16.86302 13.55684 -11.25651
-889.3637 166.2069 2027.257 1.719419 0.5823458 -98.8471 6.982759 -23.84105 10.88603 -0 37.20073 -0 -6.429143 -15.35448 -4.963743 -5.616358 12.65599 -24.7495 -0 6.091719 -0 0.9373921 -22.9405 24.06028 -0.4271269 -1.292421 4.530992 0.04598321 14.11856 -7.128611 0.7049842 22.41287 5.616115 5.280467 -18.27977 4.149477 -0.7509332 -20.01734 11.80707 92.37569 24.55034 -20.5015 -0 0 12.80295 -22.33637 9.836646 5.77798 7.656612 -27.3415 -8.970692 -86.55516 9.298172 13.14548 0 0 -21.51789 17.39338 13.93289 -12.23274
-890.6683 166.5596 2027.145 3.606782 0.5969335 -98.94782 8.422752 -26.98478 12.01401 -0 35.19346 -0 -6.065867 -15.6166 -4.665829 -5.838941 12.53143 -25.39471 -0 6.210657 -0 2.501159 -23.51238 24.84757 -0.3725447 -1.437969 4.170106 0.209842 13.92742 -7.388418 0.8453765 22.51666 5.654266 4.847138 -19.06757 4.756232 -1.514435 -19.81052 11.70858 93.73898 24.23976 -21.67873 -0 0 11.40556 -22.15398 9.695736 5.569607 7.830297 -27.52993 -8.621644 -85.72767 9.466795 11.65405 0 0 -24.11831 17.7577 14.29331 -12.80309
-892.0868 166.8781 2027.038 5.146623 0.6000321 -99.03613 9.552166 -30.06498 12.38696 -0 32.42341 -0 -5.949148 -14.69173 -4.027526 -6.059292 12.36053 -25.42594 -0 6.539706 -0 4.013887 -23.92149 25.19551 -0.2493024 -1.630685 3.859297 0.3808005 13.82773 -7.655674 0.9680565 22.61162 5.644131 4.395813 -19.80247 5.276607 -2.335288 -19.68498 11.62195 95.1267 23.5638 -22.88656 -0 0 9.992874 -22.05498 9.637692 5.433167 7.953934 -27.86595 -8.383422 -85.00204 9.705752 10.4043 0 0 -26.74501 17.96632 14.67077 -12.9993
-893.816 167.0782 2026.908 6.259964 0.5900646 -99.05242 10.21805 -32.9901 11.83165 -0 28.76705 -0 -6.117972 -12.66562 -3.077095 -6.247145 12.27886 -24.80575 -0 7.121547 -0 5.244692 -24.22856 24.94331 -0.08119621 -1.871612 3.578516 0.5560523 13.79463 -7.929973 1.070771 22.70856 5.601788 3.940458 -20.474 5.713496 -3.189874 -19.61123 11.54115 96.50284 22.55695 -24.0963 -0 0 8.549006 -22.0506 9.628067 5.374083 8.045559 -28.33519 -8.237396 -84.36139 10.01682 9.344484 0 0 -29.36788 18.03576 15.08609 -12.85349
-896.0812 167.0724 2026.711 6.823312 0.5678098 -98.92827 10.21528 -35.52302 10.11823 -0 24.19083 -0 -6.619944 -9.633237 -1.850026 -6.369415 12.44701 -23.4568 -0 8.090868 -0 5.914255 -24.44143 23.90335 0.1101855 -2.160721 3.310245 0.7352264 13.80442 -8.210068 1.152252 22.81509 5.540524 3.489673 -21.07314 6.073352 -4.052069 -19.56618 11.46255 97.82955 21.24799 -25.27904 -0 0 7.068664 -22.14085 9.641149 5.39997 8.116574 -28.91657 -8.16407 -83.79711 10.4079 8.441696 0 0 -31.94776 17.9785 15.55371 -12.38555
-899.1464 166.7999 2026.389 6.655587 0.535478 -98.59988 9.357183 -37.19306 7.065374 -0 18.89389 -0 -7.459538 -5.773636 -0.4470973 -6.389552 13.06267 -21.26166 -0 9.739109 -0 5.671586 -24.44977 21.87996 0.305617 -2.492242 3.043896 0.9175724 13.83853 -8.4892 1.211918 22.93847 5.468159 3.047916 -21.58561 6.361447 -4.88773 -19.53777 11.38775 99.05712 19.664 -26.38979 -0 0 5.571365 -22.31696 9.658831 5.523055 8.162781 -29.57285 -8.147821 -83.32011 10.89805 7.707675 0 0 -34.38771 17.79781 16.082 -11.59731
-903.2829 166.2943 2025.871 5.589977 0.5106203 -98.05697 7.787597 -37.27022 2.961033 -0 13.6534 -0 -8.489029 -1.518331 0.8457603 -6.274809 14.27095 -18.16512 -0 12.63147 -0 4.223699 -23.8985 18.86538 0.4845354 -2.846751 2.778795 1.095134 13.88489 -8.745805 1.250077 23.08876 5.387411 2.625134 -21.9758 6.575156 -5.632462 -19.5201 11.32691 100.0955 17.86056 -27.34249 -0 0 4.127372 -22.56855 9.673953 5.764142 8.163163 -30.23337 -8.179099 -82.97523 11.5148 7.212672 0 0 -36.46418 17.49499 16.67306 -10.49048
-908.6269 165.7709 2025.119 3.677131 0.5765056 -97.44445 6.374135 -35.09822 -0.8722419 -0 10.11193 -0 -9.309482 2.311012 1.471863 -5.997427 15.79316 -14.41506 -0 17.65273 -0 1.793406 -22.10487 15.46855 0.6223521 -3.181632 2.529877 1.243434 13.9425 -8.929675 1.26998 23.28118 5.296707 2.247257 -22.17287 6.701629 -6.162597 -19.50993 11.30607 100.7819 15.97554 -27.98105 -0 0 2.895468 -22.89197 9.703203 6.158232 8.079915 -30.76678 -8.25273 -82.86387 12.2809 7.105473 0 0 -37.73864 17.08921 17.32556 -9.111861
-914.9377 165.5706 2024.181 1.334792 0.9017359 -97.10325 6.166574 -30.81207 -2.621866 -0 9.838899 -0 -9.559646 4.672652 0.9440426 -5.48151 16.37731 -10.78302 -0 25.509 -0 -0.5020949 -18.47468 12.97793 0.6916129 -3.431036 2.335916 1.31211 14.03064 -8.949202 1.279838 23.52969 5.197311 1.969571 -22.07241 6.723339 -6.271405 -19.50549 11.37599 100.8608 14.30193 -28.06605 -0 0 2.153122 -23.30698 9.813918 6.764415 7.874638 -30.96606 -8.358305 -83.16347 13.17074 7.616893 0 0 -37.52024 16.65404 18.03922 -7.634266
-921.6221 165.8444 2023.161 -1.065481 1.456638 -97.26894 6.82759 -25.27562 -2.171809 -0 11.65842 -0 -9.652094 4.940993 -0.4153573 -4.634779 14.54269 -8.14894 -0 35.56094 -0 -1.691504 -13.58598 12.05064 0.6739484 -3.546301 2.262276 1.233124 14.19795 -8.693541 1.29017 23.81495 5.109987 1.876843 -21.59657 6.637923 -5.721614 -19.51838 11.60174 100.053 13.28745 -27.34781 -0 0 2.242631 -23.88093 10.14626 7.667379 7.560334 -30.62274 -8.461477 -84.08037 14.02793 8.971448 0 0 -35.12054 16.3395 18.80446 -6.414748
-928.2198 166.5198 2022.049 -3.612286 1.823072 -97.79256 7.116211 -19.15336 -1.12173 -0 12.55052 -0 -10.26212 3.410138 -1.968096 -3.690427 10.98449 -6.664661 -0 45.75783 -0 -2.14067 -9.389039 12.35989 0.5894009 -3.573492 2.380907 0.9718929 14.51692 -8.131376 1.309634 24.04187 5.066509 2.016143 -20.83625 6.484021 -4.480714 -19.62618 12.00125 98.31679 13.24544 -25.76462 -0 0 3.374956 -24.70987 10.84845 8.917609 7.229339 -29.7323 -8.507125 -85.66528 14.56123 11.18799 0 0 -30.51998 16.26571 19.55271 -5.811291
